Coordinates
version=1
nRows=38
nColumns=12
inDegrees=yes

Units are S.I. units (second, meters, Newtons, ...)
Angles are in degrees

endheader
time	SC_y	SC_z	SC_x	AC_y	AC_z	AC_x	GH_y	GH_z	GH_yy	EL_x	PS_y
       0.0              -18.39           14.6          44.72          47.11         -4.004         -6.434         -35.93          4.354         -48.26          29.41          40.19
   0.03501              -18.39           14.6          44.73          47.11         -4.005         -6.435         -35.93          4.358         -48.25          29.42           40.2
   0.07003               -18.4           14.6          44.73          47.11         -4.006         -6.436         -35.93          4.362         -48.25          29.44          40.22
     0.105               -18.4          14.59          44.73          47.11         -4.008         -6.438         -35.93          4.366         -48.24          29.46          40.24
    0.1401               -18.4          14.59          44.74          47.11         -4.009         -6.439         -35.93          4.371         -48.24          29.47          40.26
    0.1751              -18.41          14.59          44.74           47.1          -4.01          -6.44         -35.93          4.376         -48.23          29.49          40.29
    0.2101              -18.41          14.59          44.75           47.1         -4.011         -6.441         -35.93          4.381         -48.22          29.51          40.31
    0.2451              -18.42          14.58          44.75           47.1         -4.013         -6.443         -35.93          4.386         -48.22          29.54          40.33
    0.2801              -18.42          14.58          44.76           47.1         -4.014         -6.444         -35.93          4.392         -48.21          29.56          40.36
    0.3151              -18.43          14.58          44.76           47.1         -4.016         -6.446         -35.93          4.398          -48.2          29.58          40.39
    0.3501              -18.44          14.57          44.77          47.09         -4.018         -6.448         -35.93          4.405          -48.2          29.61          40.42
    0.3851              -18.44          14.57          44.77          47.09          -4.02          -6.45         -35.94          4.412         -48.19          29.64          40.45
    0.4202              -18.45          14.57          44.78          47.09         -4.022         -6.452         -35.94           4.42         -48.18          29.67          40.49
    0.4552              -18.46          14.56          44.79          47.09         -4.024         -6.454         -35.94          4.428         -48.17          29.71          40.53
    0.4902              -18.47          14.56          44.79          47.08         -4.027         -6.457         -35.94          4.438         -48.16          29.74          40.57
    0.5252              -18.48          14.55           44.8          47.08         -4.029         -6.459         -35.94          4.448         -48.15          29.78          40.62
    0.5602              -18.49          14.55          44.81          47.07         -4.032         -6.462         -35.94          4.458         -48.13          29.83          40.67
    0.5952               -18.5          14.54          44.82          47.07         -4.035         -6.465         -35.94           4.47         -48.12          29.87          40.72
    0.6302              -18.51          14.54          44.83          47.07         -4.039         -6.469         -35.94          4.483         -48.11          29.92          40.78
    0.6652              -18.52          14.53          44.85          47.06         -4.042         -6.473         -35.94          4.497         -48.09          29.98          40.85
    0.7003              -18.54          14.52          44.86          47.06         -4.046         -6.477         -35.94          4.512         -48.07          30.04          40.92
    0.7353              -18.56          14.51          44.87          47.05         -4.051         -6.481         -35.95          4.529         -48.05          30.11           41.0
    0.7703              -18.57           14.5          44.89          47.04         -4.056         -6.486         -35.95          4.548         -48.03          30.19          41.08
    0.8053              -18.59          14.49          44.91          47.04         -4.061         -6.492         -35.95          4.569         -48.01          30.27          41.18
    0.8403              -18.61          14.48          44.93          47.03         -4.067         -6.498         -35.95          4.592         -47.98          30.36          41.28
    0.8753              -18.64          14.47          44.95          47.02         -4.074         -6.505         -35.95          4.617         -47.95          30.46           41.4
    0.9103              -18.67          14.45          44.98          47.01         -4.082         -6.513         -35.96          4.646         -47.92          30.58          41.54
    0.9453               -18.7          14.44           45.0           47.0         -4.091         -6.521         -35.96          4.679         -47.88          30.71          41.69
    0.9804              -18.73          14.42          45.04          46.99           -4.1         -6.531         -35.96          4.715         -47.84          30.86          41.86
     1.015              -18.77           14.4          45.07          46.97         -4.111         -6.542         -35.97          4.757         -47.79          31.02          42.05
      1.05              -18.82          14.37          45.11          46.95         -4.124         -6.555         -35.97          4.804         -47.73          31.21          42.27
     1.085              -18.87          14.35          45.16          46.94         -4.139         -6.569         -35.98          4.859         -47.67          31.43          42.52
      1.12              -18.93          14.32          45.22          46.91         -4.155         -6.586         -35.98          4.922          -47.6          31.69          42.81
     1.155               -19.0          14.28          45.28          46.89         -4.175         -6.606         -35.99          4.995         -47.51          31.98          43.15
      1.19              -19.08          14.24          45.35          46.86         -4.197         -6.629          -36.0           5.08         -47.41          32.32          43.54
     1.225              -19.18          14.18          45.44          46.82         -4.224         -6.656         -36.01          5.181          -47.3          32.73          44.01
      1.26              -19.29          14.12          45.54          46.78         -4.256         -6.688         -36.02          5.301         -47.16          33.21          44.56
     1.295              -19.43          14.05          45.67          46.73         -4.294         -6.726         -36.03          5.445         -46.99          33.78          45.23
